<mxfile host="app.diagrams.net" agent="Mozilla/5.0 (Windows NT 10.0; Win64; x64) AppleWebKit/537.36 (KHTML, like Gecko) Chrome/128.0.0.0 Safari/537.36" version="24.7.14">
  <diagram name="第 1 页" id="cqhHoukOKBnEsIwZ5uYo">
    <mxGraphModel dx="1167" dy="638" grid="1" gridSize="10" guides="1" tooltips="1" connect="1" arrows="1" fold="1" page="1" pageScale="1" pageWidth="827" pageHeight="1169" math="0" shadow="0">
      <root>
        <mxCell id="0" />
        <mxCell id="1" parent="0" />
        <mxCell id="mE_IgQp_bbBxzPFS58c7-73" value="" style="rounded=0;whiteSpace=wrap;html=1;fillColor=#f5f5f5;strokeColor=#666666;dashed=1;fontColor=#333333;" vertex="1" parent="1">
          <mxGeometry x="280" y="210" width="680" height="330" as="geometry" />
        </mxCell>
        <mxCell id="mE_IgQp_bbBxzPFS58c7-72" value="" style="rounded=0;whiteSpace=wrap;html=1;fillColor=#e1d5e7;strokeColor=#9673a6;dashed=1;" vertex="1" parent="1">
          <mxGeometry x="1010" y="270" width="215" height="250" as="geometry" />
        </mxCell>
        <mxCell id="mE_IgQp_bbBxzPFS58c7-62" value="" style="rounded=0;whiteSpace=wrap;html=1;fillColor=#e1d5e7;strokeColor=#9673a6;dashed=1;" vertex="1" parent="1">
          <mxGeometry x="300" y="365" width="110" height="80" as="geometry" />
        </mxCell>
        <mxCell id="mE_IgQp_bbBxzPFS58c7-61" value="" style="rounded=0;whiteSpace=wrap;html=1;fillColor=#e1d5e7;strokeColor=#9673a6;dashed=1;" vertex="1" parent="1">
          <mxGeometry x="130" y="280" width="140" height="200" as="geometry" />
        </mxCell>
        <mxCell id="mE_IgQp_bbBxzPFS58c7-2" value="" style="rounded=0;whiteSpace=wrap;html=1;" vertex="1" parent="1">
          <mxGeometry x="470" y="250" width="470" height="270" as="geometry" />
        </mxCell>
        <mxCell id="mE_IgQp_bbBxzPFS58c7-3" value="" style="rounded=0;whiteSpace=wrap;html=1;fillColor=#fff2cc;strokeColor=#d6b656;" vertex="1" parent="1">
          <mxGeometry x="470" y="250" width="470" height="60" as="geometry" />
        </mxCell>
        <mxCell id="mE_IgQp_bbBxzPFS58c7-4" value="" style="rounded=0;whiteSpace=wrap;html=1;fillColor=#fff2cc;strokeColor=#d6b656;" vertex="1" parent="1">
          <mxGeometry x="470" y="310" width="90" height="210" as="geometry" />
        </mxCell>
        <mxCell id="mE_IgQp_bbBxzPFS58c7-5" value="顶部菜单" style="rounded=0;whiteSpace=wrap;html=1;" vertex="1" parent="1">
          <mxGeometry x="668" y="265" width="120" height="30" as="geometry" />
        </mxCell>
        <mxCell id="mE_IgQp_bbBxzPFS58c7-6" value="侧边菜单" style="rounded=0;whiteSpace=wrap;html=1;" vertex="1" parent="1">
          <mxGeometry x="480" y="350" width="70" height="30" as="geometry" />
        </mxCell>
        <mxCell id="mE_IgQp_bbBxzPFS58c7-8" value="场景包1" style="rounded=0;whiteSpace=wrap;html=1;" vertex="1" parent="1">
          <mxGeometry x="150" y="405" width="100" height="40" as="geometry" />
        </mxCell>
        <mxCell id="mE_IgQp_bbBxzPFS58c7-14" value="场景包2" style="rounded=0;whiteSpace=wrap;html=1;" vertex="1" parent="1">
          <mxGeometry x="150" y="310" width="100" height="40" as="geometry" />
        </mxCell>
        <mxCell id="mE_IgQp_bbBxzPFS58c7-24" value="注册机制" style="rounded=0;whiteSpace=wrap;html=1;" vertex="1" parent="1">
          <mxGeometry x="310" y="382.5" width="90" height="45" as="geometry" />
        </mxCell>
        <mxCell id="mE_IgQp_bbBxzPFS58c7-25" value="" style="endArrow=classic;html=1;rounded=0;exitX=1;exitY=0.75;exitDx=0;exitDy=0;entryX=0;entryY=0.25;entryDx=0;entryDy=0;" edge="1" parent="1" source="mE_IgQp_bbBxzPFS58c7-14" target="mE_IgQp_bbBxzPFS58c7-24">
          <mxGeometry width="50" height="50" relative="1" as="geometry">
            <mxPoint x="190" y="325" as="sourcePoint" />
            <mxPoint x="280" y="360" as="targetPoint" />
            <Array as="points" />
          </mxGeometry>
        </mxCell>
        <mxCell id="mE_IgQp_bbBxzPFS58c7-33" value="" style="rounded=0;whiteSpace=wrap;html=1;fillColor=#d5e8d4;strokeColor=#82b366;" vertex="1" parent="1">
          <mxGeometry x="574" y="320" width="356" height="190" as="geometry" />
        </mxCell>
        <mxCell id="mE_IgQp_bbBxzPFS58c7-35" value="" style="endArrow=classic;html=1;rounded=0;exitX=0.545;exitY=0.813;exitDx=0;exitDy=0;entryX=-0.009;entryY=0.596;entryDx=0;entryDy=0;entryPerimeter=0;exitPerimeter=0;" edge="1" parent="1" source="mE_IgQp_bbBxzPFS58c7-62" target="mE_IgQp_bbBxzPFS58c7-109">
          <mxGeometry width="50" height="50" relative="1" as="geometry">
            <mxPoint x="320" y="150" as="sourcePoint" />
            <mxPoint x="620" y="400" as="targetPoint" />
            <Array as="points" />
          </mxGeometry>
        </mxCell>
        <mxCell id="mE_IgQp_bbBxzPFS58c7-44" value="替换" style="edgeLabel;html=1;align=center;verticalAlign=middle;resizable=0;points=[];fontSize=13;fontColor=#990000;" vertex="1" connectable="0" parent="mE_IgQp_bbBxzPFS58c7-35">
          <mxGeometry x="0.0724" y="4" relative="1" as="geometry">
            <mxPoint y="10" as="offset" />
          </mxGeometry>
        </mxCell>
        <mxCell id="mE_IgQp_bbBxzPFS58c7-51" value="菜单注册" style="rounded=0;whiteSpace=wrap;html=1;" vertex="1" parent="1">
          <mxGeometry x="480" y="400" width="70" height="30" as="geometry" />
        </mxCell>
        <mxCell id="mE_IgQp_bbBxzPFS58c7-55" value="" style="endArrow=classic;html=1;rounded=0;exitX=1;exitY=0.5;exitDx=0;exitDy=0;" edge="1" parent="1" source="mE_IgQp_bbBxzPFS58c7-8" target="mE_IgQp_bbBxzPFS58c7-24">
          <mxGeometry width="50" height="50" relative="1" as="geometry">
            <mxPoint x="230" y="320" as="sourcePoint" />
            <mxPoint x="320" y="355" as="targetPoint" />
            <Array as="points" />
          </mxGeometry>
        </mxCell>
        <mxCell id="mE_IgQp_bbBxzPFS58c7-56" value="" style="endArrow=classic;html=1;rounded=0;entryX=0;entryY=0.5;entryDx=0;entryDy=0;exitX=1;exitY=1;exitDx=0;exitDy=0;" edge="1" parent="1" target="mE_IgQp_bbBxzPFS58c7-51">
          <mxGeometry width="50" height="50" relative="1" as="geometry">
            <mxPoint x="400" y="405" as="sourcePoint" />
            <mxPoint x="490" y="407.5" as="targetPoint" />
          </mxGeometry>
        </mxCell>
        <mxCell id="mE_IgQp_bbBxzPFS58c7-57" value="流程图" style="rounded=0;whiteSpace=wrap;html=1;" vertex="1" parent="1">
          <mxGeometry x="1020" y="425" width="90" height="35" as="geometry" />
        </mxCell>
        <mxCell id="mE_IgQp_bbBxzPFS58c7-58" value="see控制台" style="rounded=0;whiteSpace=wrap;html=1;" vertex="1" parent="1">
          <mxGeometry x="1120" y="420" width="100" height="40" as="geometry" />
        </mxCell>
        <mxCell id="mE_IgQp_bbBxzPFS58c7-63" value="日志中心链路图" style="rounded=0;whiteSpace=wrap;html=1;" vertex="1" parent="1">
          <mxGeometry x="1020" y="295" width="90" height="35" as="geometry" />
        </mxCell>
        <mxCell id="mE_IgQp_bbBxzPFS58c7-64" value="日志中心" style="rounded=0;whiteSpace=wrap;html=1;" vertex="1" parent="1">
          <mxGeometry x="1120" y="290" width="100" height="40" as="geometry" />
        </mxCell>
        <mxCell id="mE_IgQp_bbBxzPFS58c7-65" value="" style="endArrow=classic;html=1;rounded=0;exitX=0;exitY=0.5;exitDx=0;exitDy=0;entryX=0.99;entryY=0.401;entryDx=0;entryDy=0;entryPerimeter=0;" edge="1" parent="1" source="mE_IgQp_bbBxzPFS58c7-72" target="mE_IgQp_bbBxzPFS58c7-33">
          <mxGeometry width="50" height="50" relative="1" as="geometry">
            <mxPoint x="1095" y="315.00317073170737" as="sourcePoint" />
            <mxPoint x="940" y="367.93" as="targetPoint" />
          </mxGeometry>
        </mxCell>
        <mxCell id="mE_IgQp_bbBxzPFS58c7-66" value="嵌入url" style="edgeLabel;html=1;align=center;verticalAlign=middle;resizable=0;points=[];fontSize=13;fontColor=#0000CC;" vertex="1" connectable="0" parent="mE_IgQp_bbBxzPFS58c7-65">
          <mxGeometry x="-0.2101" relative="1" as="geometry">
            <mxPoint x="-7" as="offset" />
          </mxGeometry>
        </mxCell>
        <mxCell id="mE_IgQp_bbBxzPFS58c7-67" value="天鉴" style="rounded=0;whiteSpace=wrap;html=1;" vertex="1" parent="1">
          <mxGeometry x="1120" y="350" width="100" height="40" as="geometry" />
        </mxCell>
        <mxCell id="mE_IgQp_bbBxzPFS58c7-68" value="天鉴大屏" style="rounded=0;whiteSpace=wrap;html=1;" vertex="1" parent="1">
          <mxGeometry x="1020" y="357.5" width="90" height="32.5" as="geometry" />
        </mxCell>
        <mxCell id="mE_IgQp_bbBxzPFS58c7-75" value="场景控制台" style="text;html=1;align=center;verticalAlign=middle;resizable=0;points=[];autosize=1;strokeColor=none;fillColor=none;" vertex="1" parent="1">
          <mxGeometry x="640" y="220" width="80" height="30" as="geometry" />
        </mxCell>
        <mxCell id="mE_IgQp_bbBxzPFS58c7-84" value="" style="endArrow=classic;html=1;rounded=0;entryX=-0.033;entryY=0.637;entryDx=0;entryDy=0;entryPerimeter=0;" edge="1" parent="1" target="mE_IgQp_bbBxzPFS58c7-86">
          <mxGeometry width="50" height="50" relative="1" as="geometry">
            <mxPoint x="270" y="320" as="sourcePoint" />
            <mxPoint x="350" y="355" as="targetPoint" />
            <Array as="points">
              <mxPoint x="270" y="320" />
            </Array>
          </mxGeometry>
        </mxCell>
        <mxCell id="mE_IgQp_bbBxzPFS58c7-85" value="" style="endArrow=classic;html=1;rounded=0;exitX=1;exitY=0.5;exitDx=0;exitDy=0;entryX=0.027;entryY=0.04;entryDx=0;entryDy=0;entryPerimeter=0;" edge="1" parent="1" source="mE_IgQp_bbBxzPFS58c7-81" target="mE_IgQp_bbBxzPFS58c7-4">
          <mxGeometry width="50" height="50" relative="1" as="geometry">
            <mxPoint x="414" y="265" as="sourcePoint" />
            <mxPoint x="614.3600000000001" y="195.65999999999997" as="targetPoint" />
            <Array as="points" />
          </mxGeometry>
        </mxCell>
        <mxCell id="mE_IgQp_bbBxzPFS58c7-87" value="工程脚手架" style="rounded=0;whiteSpace=wrap;html=1;" vertex="1" parent="1">
          <mxGeometry x="160" y="555" width="70" height="25" as="geometry" />
        </mxCell>
        <mxCell id="mE_IgQp_bbBxzPFS58c7-88" value="" style="endArrow=classic;html=1;rounded=0;entryX=0.5;entryY=1;entryDx=0;entryDy=0;" edge="1" parent="1" target="mE_IgQp_bbBxzPFS58c7-61">
          <mxGeometry width="50" height="50" relative="1" as="geometry">
            <mxPoint x="200" y="555" as="sourcePoint" />
            <mxPoint x="250" y="505" as="targetPoint" />
          </mxGeometry>
        </mxCell>
        <mxCell id="mE_IgQp_bbBxzPFS58c7-89" value="开发构建" style="edgeLabel;html=1;align=center;verticalAlign=middle;resizable=0;points=[];" vertex="1" connectable="0" parent="mE_IgQp_bbBxzPFS58c7-88">
          <mxGeometry x="-0.024" y="2" relative="1" as="geometry">
            <mxPoint as="offset" />
          </mxGeometry>
        </mxCell>
        <mxCell id="mE_IgQp_bbBxzPFS58c7-86" value="" style="rounded=0;whiteSpace=wrap;html=1;dashed=1;fillColor=#e1d5e7;strokeColor=#9673a6;movable=1;resizable=1;rotatable=1;deletable=1;editable=1;locked=0;connectable=1;" vertex="1" parent="1">
          <mxGeometry x="300" y="285" width="110" height="60" as="geometry" />
        </mxCell>
        <mxCell id="mE_IgQp_bbBxzPFS58c7-81" value="统一ui规范" style="rounded=0;whiteSpace=wrap;html=1;movable=1;resizable=1;rotatable=1;deletable=1;editable=1;locked=0;connectable=1;" vertex="1" parent="1">
          <mxGeometry x="310" y="295" width="90" height="40" as="geometry" />
        </mxCell>
        <mxCell id="mE_IgQp_bbBxzPFS58c7-93" value="1" style="ellipse;whiteSpace=wrap;html=1;aspect=fixed;fillColor=#fff2cc;strokeColor=#d6b656;" vertex="1" parent="1">
          <mxGeometry x="150" y="510" width="20" height="20" as="geometry" />
        </mxCell>
        <mxCell id="mE_IgQp_bbBxzPFS58c7-94" value="2" style="ellipse;whiteSpace=wrap;html=1;aspect=fixed;fillColor=#fff2cc;strokeColor=#d6b656;" vertex="1" parent="1">
          <mxGeometry x="185" y="365" width="20" height="20" as="geometry" />
        </mxCell>
        <mxCell id="mE_IgQp_bbBxzPFS58c7-95" value="3" style="ellipse;whiteSpace=wrap;html=1;aspect=fixed;fillColor=#fff2cc;strokeColor=#d6b656;" vertex="1" parent="1">
          <mxGeometry x="270" y="295" width="20" height="20" as="geometry" />
        </mxCell>
        <mxCell id="mE_IgQp_bbBxzPFS58c7-96" value="4" style="ellipse;whiteSpace=wrap;html=1;aspect=fixed;fillColor=#fff2cc;strokeColor=#d6b656;" vertex="1" parent="1">
          <mxGeometry x="345" y="445" width="20" height="20" as="geometry" />
        </mxCell>
        <mxCell id="mE_IgQp_bbBxzPFS58c7-98" value="5" style="ellipse;whiteSpace=wrap;html=1;aspect=fixed;fillColor=#fff2cc;strokeColor=#d6b656;" vertex="1" parent="1">
          <mxGeometry x="610" y="415" width="20" height="20" as="geometry" />
        </mxCell>
        <mxCell id="mE_IgQp_bbBxzPFS58c7-99" value="6" style="ellipse;whiteSpace=wrap;html=1;aspect=fixed;fillColor=#fff2cc;strokeColor=#d6b656;" vertex="1" parent="1">
          <mxGeometry x="400" y="575" width="20" height="20" as="geometry" />
        </mxCell>
        <mxCell id="mE_IgQp_bbBxzPFS58c7-103" value="7" style="ellipse;whiteSpace=wrap;html=1;aspect=fixed;fillColor=#fff2cc;strokeColor=#d6b656;" vertex="1" parent="1">
          <mxGeometry x="970" y="355" width="20" height="20" as="geometry" />
        </mxCell>
        <mxCell id="mE_IgQp_bbBxzPFS58c7-109" value="工作台（动态组件）" style="rounded=0;whiteSpace=wrap;html=1;fillColor=#d5e8d4;strokeColor=#82b366;" vertex="1" parent="1">
          <mxGeometry x="520" y="570" width="260" height="160" as="geometry" />
        </mxCell>
        <mxCell id="mE_IgQp_bbBxzPFS58c7-110" value="组件1" style="rounded=0;whiteSpace=wrap;html=1;" vertex="1" parent="1">
          <mxGeometry x="535" y="590" width="95" height="40" as="geometry" />
        </mxCell>
        <mxCell id="mE_IgQp_bbBxzPFS58c7-111" value="组件4" style="rounded=0;whiteSpace=wrap;html=1;" vertex="1" parent="1">
          <mxGeometry x="668" y="670" width="95" height="40" as="geometry" />
        </mxCell>
        <mxCell id="mE_IgQp_bbBxzPFS58c7-112" value="组件3" style="rounded=0;whiteSpace=wrap;html=1;" vertex="1" parent="1">
          <mxGeometry x="535" y="670" width="95" height="40" as="geometry" />
        </mxCell>
        <mxCell id="mE_IgQp_bbBxzPFS58c7-113" value="组件2" style="rounded=0;whiteSpace=wrap;html=1;" vertex="1" parent="1">
          <mxGeometry x="668" y="590" width="95" height="40" as="geometry" />
        </mxCell>
        <mxCell id="mE_IgQp_bbBxzPFS58c7-116" value="内容区域" style="rounded=0;whiteSpace=wrap;html=1;" vertex="1" parent="1">
          <mxGeometry x="692" y="385" width="120" height="60" as="geometry" />
        </mxCell>
        <mxCell id="mE_IgQp_bbBxzPFS58c7-123" value="" style="endArrow=classic;html=1;rounded=0;" edge="1" parent="1" source="mE_IgQp_bbBxzPFS58c7-116" target="mE_IgQp_bbBxzPFS58c7-109">
          <mxGeometry width="50" height="50" relative="1" as="geometry">
            <mxPoint x="650" y="530" as="sourcePoint" />
            <mxPoint x="700" y="480" as="targetPoint" />
          </mxGeometry>
        </mxCell>
        <mxCell id="mE_IgQp_bbBxzPFS58c7-124" value="工作台" style="edgeLabel;html=1;align=center;verticalAlign=middle;resizable=0;points=[];" vertex="1" connectable="0" parent="mE_IgQp_bbBxzPFS58c7-123">
          <mxGeometry x="-0.0848" y="-2" relative="1" as="geometry">
            <mxPoint as="offset" />
          </mxGeometry>
        </mxCell>
        <mxCell id="mE_IgQp_bbBxzPFS58c7-125" value="" style="endArrow=classic;html=1;rounded=0;exitX=1;exitY=0.5;exitDx=0;exitDy=0;entryX=0;entryY=0.5;entryDx=0;entryDy=0;" edge="1" parent="1" source="mE_IgQp_bbBxzPFS58c7-51" target="mE_IgQp_bbBxzPFS58c7-116">
          <mxGeometry width="50" height="50" relative="1" as="geometry">
            <mxPoint x="650" y="530" as="sourcePoint" />
            <mxPoint x="700" y="480" as="targetPoint" />
          </mxGeometry>
        </mxCell>
        <mxCell id="mE_IgQp_bbBxzPFS58c7-130" value="自定义开发内容" style="rounded=0;whiteSpace=wrap;html=1;fillColor=#d5e8d4;strokeColor=#82b366;" vertex="1" parent="1">
          <mxGeometry x="840" y="570" width="240" height="160" as="geometry" />
        </mxCell>
        <mxCell id="mE_IgQp_bbBxzPFS58c7-135" value="" style="endArrow=classic;html=1;rounded=0;exitX=0.412;exitY=0.987;exitDx=0;exitDy=0;exitPerimeter=0;" edge="1" parent="1" source="mE_IgQp_bbBxzPFS58c7-116" target="mE_IgQp_bbBxzPFS58c7-130">
          <mxGeometry width="50" height="50" relative="1" as="geometry">
            <mxPoint x="650" y="530" as="sourcePoint" />
            <mxPoint x="700" y="480" as="targetPoint" />
          </mxGeometry>
        </mxCell>
        <mxCell id="mE_IgQp_bbBxzPFS58c7-147" value="自定义菜单内容" style="edgeLabel;html=1;align=center;verticalAlign=middle;resizable=0;points=[];" vertex="1" connectable="0" parent="mE_IgQp_bbBxzPFS58c7-135">
          <mxGeometry x="-0.0656" y="1" relative="1" as="geometry">
            <mxPoint as="offset" />
          </mxGeometry>
        </mxCell>
      </root>
    </mxGraphModel>
  </diagram>
</mxfile>
